<mxfile host="65bd71144e" modified="2020-10-13T17:19:52.044Z" agent="5.0 (Macintosh; Intel Mac OS X 10_15_7) AppleWebKit/537.36 (KHTML, like Gecko) Code/1.50.0 Chrome/83.0.4103.122 Electron/9.2.1 Safari/537.36" etag="6htFAiYc7cFU6UDTX8of" version="13.6.5">
    <diagram id="Go0cSmdG1rQRtnyYNCXG" name="Page-1">
        <mxGraphModel dx="957" dy="398" grid="1" gridSize="10" guides="1" tooltips="1" connect="1" arrows="1" fold="1" page="1" pageScale="1" pageWidth="850" pageHeight="1100" math="0" shadow="0">
            <root>
                <mxCell id="0"/>
                <mxCell id="1" parent="0"/>
                <mxCell id="6" style="edgeStyle=orthogonalEdgeStyle;rounded=0;orthogonalLoop=1;jettySize=auto;html=1;" parent="1" source="2" target="4" edge="1">
                    <mxGeometry relative="1" as="geometry"/>
                </mxCell>
                <mxCell id="7" style="edgeStyle=orthogonalEdgeStyle;rounded=0;orthogonalLoop=1;jettySize=auto;html=1;entryX=0.5;entryY=0;entryDx=0;entryDy=0;" parent="1" source="2" target="3" edge="1">
                    <mxGeometry relative="1" as="geometry"/>
                </mxCell>
                <mxCell id="13" style="edgeStyle=orthogonalEdgeStyle;rounded=0;orthogonalLoop=1;jettySize=auto;html=1;" parent="1" source="2" target="9" edge="1">
                    <mxGeometry relative="1" as="geometry"/>
                </mxCell>
                <mxCell id="16" style="edgeStyle=orthogonalEdgeStyle;rounded=0;orthogonalLoop=1;jettySize=auto;html=1;entryX=0.5;entryY=0;entryDx=0;entryDy=0;" parent="1" source="2" target="15" edge="1">
                    <mxGeometry relative="1" as="geometry"/>
                </mxCell>
                <mxCell id="31" style="edgeStyle=orthogonalEdgeStyle;rounded=0;orthogonalLoop=1;jettySize=auto;html=1;entryX=0.5;entryY=0;entryDx=0;entryDy=0;" parent="1" source="2" target="25" edge="1">
                    <mxGeometry relative="1" as="geometry"/>
                </mxCell>
                <mxCell id="2" value="2.)&amp;nbsp;&lt;span style=&quot;color: rgba(0 , 0 , 0 , 0) ; font-family: monospace ; font-size: 0px&quot;&gt;%3CmxGraphModel%3E%3Croot%3E%3CmxCell%20id%3D%220%22%2F%3E%3CmxCell%20id%3D%221%22%20parent%3D%220%22%2F%3E%3CmxCell%20id%3D%222%22%20value%3D%22Storyline%201%26lt%3Bbr%26gt%3B%22%20style%3D%22whiteSpace%3Dwrap%3Bhtml%3D1%3B%22%20vertex%3D%221%22%20parent%3D%221%22%3E%3CmxGeometry%20x%3D%22210%22%20y%3D%22190%22%20width%3D%22120%22%20height%3D%2260%22%20as%3D%22geometry%22%2F%3E%3C%2FmxCell%3E%3C%2Froot%3E%3C%2FmxGraphModel%3E&lt;/span&gt;&lt;br&gt;Spells x3" style="whiteSpace=wrap;html=1;" parent="1" vertex="1">
                    <mxGeometry x="206" y="90" width="55" height="60" as="geometry"/>
                </mxCell>
                <mxCell id="46" style="edgeStyle=orthogonalEdgeStyle;rounded=0;orthogonalLoop=1;jettySize=auto;html=1;exitX=1;exitY=0.75;exitDx=0;exitDy=0;entryX=0;entryY=0.75;entryDx=0;entryDy=0;" parent="1" source="3" target="4" edge="1">
                    <mxGeometry relative="1" as="geometry"/>
                </mxCell>
                <mxCell id="3" value="(1)Healing Spell&amp;nbsp;" style="whiteSpace=wrap;html=1;" parent="1" vertex="1">
                    <mxGeometry x="136" y="200" width="60" height="60" as="geometry"/>
                </mxCell>
                <mxCell id="4" value="(2)Repair&amp;nbsp;" style="whiteSpace=wrap;html=1;" parent="1" vertex="1">
                    <mxGeometry x="206" y="200" width="55" height="60" as="geometry"/>
                </mxCell>
                <mxCell id="9" value="(1)Fight" style="whiteSpace=wrap;html=1;" parent="1" vertex="1">
                    <mxGeometry x="46" y="90" width="50" height="60" as="geometry"/>
                </mxCell>
                <mxCell id="18" value="" style="edgeStyle=orthogonalEdgeStyle;rounded=0;orthogonalLoop=1;jettySize=auto;html=1;" parent="1" source="15" target="17" edge="1">
                    <mxGeometry relative="1" as="geometry"/>
                </mxCell>
                <mxCell id="15" value="(3)Summon Creature" style="whiteSpace=wrap;html=1;" parent="1" vertex="1">
                    <mxGeometry x="286" y="190" width="120" height="60" as="geometry"/>
                </mxCell>
                <mxCell id="23" style="edgeStyle=orthogonalEdgeStyle;rounded=0;orthogonalLoop=1;jettySize=auto;html=1;entryX=0.5;entryY=0;entryDx=0;entryDy=0;" parent="1" source="17" target="19" edge="1">
                    <mxGeometry relative="1" as="geometry"/>
                </mxCell>
                <mxCell id="24" style="edgeStyle=orthogonalEdgeStyle;rounded=0;orthogonalLoop=1;jettySize=auto;html=1;entryX=0.75;entryY=0;entryDx=0;entryDy=0;" parent="1" source="17" target="20" edge="1">
                    <mxGeometry relative="1" as="geometry"/>
                </mxCell>
                <mxCell id="17" value="Random int&lt;br&gt;" style="whiteSpace=wrap;html=1;" parent="1" vertex="1">
                    <mxGeometry x="286" y="280" width="120" height="60" as="geometry"/>
                </mxCell>
                <mxCell id="19" value="Friendly&amp;nbsp;&lt;br&gt;(+25)" style="whiteSpace=wrap;html=1;" parent="1" vertex="1">
                    <mxGeometry x="246" y="370" width="60" height="60" as="geometry"/>
                </mxCell>
                <mxCell id="20" value="Enemy&lt;br&gt;(-25)" style="whiteSpace=wrap;html=1;" parent="1" vertex="1">
                    <mxGeometry x="376" y="370" width="60" height="60" as="geometry"/>
                </mxCell>
                <mxCell id="26" style="edgeStyle=orthogonalEdgeStyle;rounded=0;orthogonalLoop=1;jettySize=auto;html=1;" parent="1" source="25" edge="1">
                    <mxGeometry relative="1" as="geometry">
                        <mxPoint x="596" y="482" as="targetPoint"/>
                    </mxGeometry>
                </mxCell>
                <mxCell id="25" value="(4)Elemental Spell" style="whiteSpace=wrap;html=1;" parent="1" vertex="1">
                    <mxGeometry x="536" y="200" width="120" height="60" as="geometry"/>
                </mxCell>
                <mxCell id="42" style="edgeStyle=orthogonalEdgeStyle;rounded=0;orthogonalLoop=1;jettySize=auto;html=1;entryX=0.5;entryY=0;entryDx=0;entryDy=0;" parent="1" source="27" target="41" edge="1">
                    <mxGeometry relative="1" as="geometry"/>
                </mxCell>
                <mxCell id="27" value="(2)Geo" style="whiteSpace=wrap;html=1;" parent="1" vertex="1">
                    <mxGeometry x="526" y="520" width="50" height="60" as="geometry"/>
                </mxCell>
                <mxCell id="45" style="edgeStyle=orthogonalEdgeStyle;rounded=0;orthogonalLoop=1;jettySize=auto;html=1;entryX=0.5;entryY=0;entryDx=0;entryDy=0;" parent="1" source="28" target="44" edge="1">
                    <mxGeometry relative="1" as="geometry"/>
                </mxCell>
                <mxCell id="28" value="(1)Fire" style="whiteSpace=wrap;html=1;" parent="1" vertex="1">
                    <mxGeometry x="470" y="520" width="50" height="60" as="geometry"/>
                </mxCell>
                <mxCell id="40" style="edgeStyle=orthogonalEdgeStyle;rounded=0;orthogonalLoop=1;jettySize=auto;html=1;entryX=0.5;entryY=0;entryDx=0;entryDy=0;" parent="1" source="29" target="39" edge="1">
                    <mxGeometry relative="1" as="geometry"/>
                </mxCell>
                <mxCell id="29" value="(3)Electricity" style="whiteSpace=wrap;html=1;" parent="1" vertex="1">
                    <mxGeometry x="591" y="520" width="70" height="60" as="geometry"/>
                </mxCell>
                <mxCell id="33" style="edgeStyle=orthogonalEdgeStyle;rounded=0;orthogonalLoop=1;jettySize=auto;html=1;entryX=0.5;entryY=0;entryDx=0;entryDy=0;" parent="1" source="30" target="32" edge="1">
                    <mxGeometry relative="1" as="geometry"/>
                </mxCell>
                <mxCell id="30" value="(4)Ice" style="whiteSpace=wrap;html=1;" parent="1" vertex="1">
                    <mxGeometry x="676" y="520" width="50" height="60" as="geometry"/>
                </mxCell>
                <mxCell id="35" style="edgeStyle=orthogonalEdgeStyle;rounded=0;orthogonalLoop=1;jettySize=auto;html=1;entryX=0.5;entryY=0;entryDx=0;entryDy=0;" parent="1" source="32" target="34" edge="1">
                    <mxGeometry relative="1" as="geometry"/>
                </mxCell>
                <mxCell id="38" style="edgeStyle=orthogonalEdgeStyle;rounded=0;orthogonalLoop=1;jettySize=auto;html=1;entryX=0.5;entryY=0;entryDx=0;entryDy=0;" parent="1" source="32" target="37" edge="1">
                    <mxGeometry relative="1" as="geometry"/>
                </mxCell>
                <mxCell id="32" value="Random int&lt;br&gt;" style="whiteSpace=wrap;html=1;" parent="1" vertex="1">
                    <mxGeometry x="693.5" y="610" width="67.5" height="60" as="geometry"/>
                </mxCell>
                <mxCell id="34" value="Ice Block (Enemy skips turn)" style="whiteSpace=wrap;html=1;" parent="1" vertex="1">
                    <mxGeometry x="656" y="710" width="67.5" height="60" as="geometry"/>
                </mxCell>
                <mxCell id="37" value="Ice (x2 dmg)" style="whiteSpace=wrap;html=1;" parent="1" vertex="1">
                    <mxGeometry x="736" y="710" width="67.5" height="60" as="geometry"/>
                </mxCell>
                <mxCell id="39" value="Skips a turn (Stun)&amp;nbsp;" style="whiteSpace=wrap;html=1;" parent="1" vertex="1">
                    <mxGeometry x="596" y="610" width="70" height="50" as="geometry"/>
                </mxCell>
                <mxCell id="41" value="Meteor Stroke (25 DMG)" style="whiteSpace=wrap;html=1;" parent="1" vertex="1">
                    <mxGeometry x="511" y="610" width="80" height="60" as="geometry"/>
                </mxCell>
                <mxCell id="44" value="Apply Fire damage +15 Each turn." style="whiteSpace=wrap;html=1;" parent="1" vertex="1">
                    <mxGeometry x="455" y="710" width="80" height="60" as="geometry"/>
                </mxCell>
                <mxCell id="47" style="edgeStyle=orthogonalEdgeStyle;rounded=0;orthogonalLoop=1;jettySize=auto;html=1;exitX=0.75;exitY=0;exitDx=0;exitDy=0;" parent="1" source="17" target="17" edge="1">
                    <mxGeometry relative="1" as="geometry"/>
                </mxCell>
            </root>
        </mxGraphModel>
    </diagram>
</mxfile>